<mxfile host="app.diagrams.net" modified="2023-12-15T02:18:13.751Z" agent="Mozilla/5.0 (Windows NT 10.0; Win64; x64) AppleWebKit/537.36 (KHTML, like Gecko) Chrome/119.0.0.0 Safari/537.36" version="22.1.9" etag="ztD4s5MCCQ7ydCTaK5yb" type="github">
  <diagram name="第 1 页" id="ZgdtA5NrfbBx9W87sVHl">
    <mxGraphModel>
      <root>
        <mxCell id="0" />
        <mxCell id="1" parent="0" />
      </root>
    </mxGraphModel>
  </diagram>
</mxfile>
